<mxfile host="Electron" modified="2023-04-19T03:24:04.217Z" agent="Mozilla/5.0 (Windows NT 10.0; Win64; x64) AppleWebKit/537.36 (KHTML, like Gecko) draw.io/21.1.2 Chrome/106.0.5249.199 Electron/21.4.3 Safari/537.36" etag="1et8_oNsPvcvea_5F38c" version="21.1.2" type="device">
  <diagram id="C5RBs43oDa-KdzZeNtuy" name="Page-1">
    <mxGraphModel dx="1027" dy="989" grid="1" gridSize="10" guides="1" tooltips="1" connect="1" arrows="1" fold="1" page="1" pageScale="1" pageWidth="827" pageHeight="1169" math="0" shadow="0">
      <root>
        <mxCell id="WIyWlLk6GJQsqaUBKTNV-0" />
        <mxCell id="WIyWlLk6GJQsqaUBKTNV-1" parent="WIyWlLk6GJQsqaUBKTNV-0" />
        <mxCell id="o_3QL244XvAk82PywuJS-3" value="Quiz" style="swimlane;whiteSpace=wrap;html=1;" vertex="1" parent="WIyWlLk6GJQsqaUBKTNV-1">
          <mxGeometry x="40" y="30" width="750" height="760" as="geometry" />
        </mxCell>
        <mxCell id="o_3QL244XvAk82PywuJS-14" style="edgeStyle=orthogonalEdgeStyle;rounded=0;orthogonalLoop=1;jettySize=auto;html=1;exitX=1;exitY=0.5;exitDx=0;exitDy=0;entryX=0;entryY=0.5;entryDx=0;entryDy=0;" edge="1" parent="o_3QL244XvAk82PywuJS-3" source="VhWeFiaBTD0ZiUNL9AJQ-2" target="kg6EBa7nbSLMzdfXosk1-6">
          <mxGeometry relative="1" as="geometry" />
        </mxCell>
        <mxCell id="VhWeFiaBTD0ZiUNL9AJQ-2" value="" style="ellipse;fillColor=strokeColor;html=1;" parent="o_3QL244XvAk82PywuJS-3" vertex="1">
          <mxGeometry x="120" y="90" width="20" height="20" as="geometry" />
        </mxCell>
        <mxCell id="mbrXpw7Z29_kNCdEApq_-42" value="&lt;span style=&quot;font-size: 10px;&quot;&gt;Teacher&lt;/span&gt;" style="text;html=1;align=center;verticalAlign=middle;resizable=0;points=[];autosize=1;strokeColor=none;fillColor=none;" parent="o_3QL244XvAk82PywuJS-3" vertex="1">
          <mxGeometry x="100" y="20" width="60" height="30" as="geometry" />
        </mxCell>
        <mxCell id="o_3QL244XvAk82PywuJS-10" value="&lt;span style=&quot;font-size: 10px;&quot;&gt;System&lt;/span&gt;" style="text;html=1;align=center;verticalAlign=middle;resizable=0;points=[];autosize=1;strokeColor=none;fillColor=none;" vertex="1" parent="o_3QL244XvAk82PywuJS-3">
          <mxGeometry x="343" y="20" width="60" height="30" as="geometry" />
        </mxCell>
        <mxCell id="o_3QL244XvAk82PywuJS-11" value="&lt;span style=&quot;font-size: 10px;&quot;&gt;Student&lt;/span&gt;" style="text;html=1;align=center;verticalAlign=middle;resizable=0;points=[];autosize=1;strokeColor=none;fillColor=none;" vertex="1" parent="o_3QL244XvAk82PywuJS-3">
          <mxGeometry x="610" y="20" width="60" height="30" as="geometry" />
        </mxCell>
        <mxCell id="o_3QL244XvAk82PywuJS-16" style="edgeStyle=orthogonalEdgeStyle;rounded=0;orthogonalLoop=1;jettySize=auto;html=1;exitX=1;exitY=0.5;exitDx=0;exitDy=0;entryX=0;entryY=0.5;entryDx=0;entryDy=0;" edge="1" parent="o_3QL244XvAk82PywuJS-3" source="kg6EBa7nbSLMzdfXosk1-6" target="WIyWlLk6GJQsqaUBKTNV-11">
          <mxGeometry relative="1" as="geometry" />
        </mxCell>
        <mxCell id="kg6EBa7nbSLMzdfXosk1-6" value="Get trip details" style="rounded=1;whiteSpace=wrap;html=1;fontSize=12;glass=0;strokeWidth=1;shadow=0;" parent="o_3QL244XvAk82PywuJS-3" vertex="1">
          <mxGeometry x="310" y="80" width="120" height="40" as="geometry" />
        </mxCell>
        <mxCell id="o_3QL244XvAk82PywuJS-13" value="&lt;span style=&quot;font-size: 10px;&quot;&gt;Test/Quiz&lt;/span&gt;" style="text;html=1;align=center;verticalAlign=middle;resizable=0;points=[];autosize=1;strokeColor=none;fillColor=none;" vertex="1" parent="o_3QL244XvAk82PywuJS-3">
          <mxGeometry x="95" y="110" width="70" height="30" as="geometry" />
        </mxCell>
        <mxCell id="o_3QL244XvAk82PywuJS-18" style="edgeStyle=orthogonalEdgeStyle;rounded=0;orthogonalLoop=1;jettySize=auto;html=1;exitX=0.5;exitY=1;exitDx=0;exitDy=0;entryX=0.5;entryY=0;entryDx=0;entryDy=0;" edge="1" parent="o_3QL244XvAk82PywuJS-3" source="mbrXpw7Z29_kNCdEApq_-0" target="mbrXpw7Z29_kNCdEApq_-5">
          <mxGeometry relative="1" as="geometry" />
        </mxCell>
        <mxCell id="mbrXpw7Z29_kNCdEApq_-0" value="" style="rhombus;whiteSpace=wrap;html=1;shadow=0;fontFamily=Helvetica;fontSize=12;align=center;strokeWidth=1;spacing=6;spacingTop=-4;" parent="o_3QL244XvAk82PywuJS-3" vertex="1">
          <mxGeometry x="355" y="190" width="30" height="30" as="geometry" />
        </mxCell>
        <mxCell id="o_3QL244XvAk82PywuJS-17" style="edgeStyle=orthogonalEdgeStyle;rounded=0;orthogonalLoop=1;jettySize=auto;html=1;exitX=0.5;exitY=1;exitDx=0;exitDy=0;entryX=1;entryY=0.5;entryDx=0;entryDy=0;" edge="1" parent="o_3QL244XvAk82PywuJS-3" source="WIyWlLk6GJQsqaUBKTNV-11" target="mbrXpw7Z29_kNCdEApq_-0">
          <mxGeometry relative="1" as="geometry" />
        </mxCell>
        <mxCell id="WIyWlLk6GJQsqaUBKTNV-11" value="Confirm" style="rounded=1;whiteSpace=wrap;html=1;fontSize=12;glass=0;strokeWidth=1;shadow=0;" parent="o_3QL244XvAk82PywuJS-3" vertex="1">
          <mxGeometry x="570" y="80" width="120" height="40" as="geometry" />
        </mxCell>
        <mxCell id="o_3QL244XvAk82PywuJS-19" style="edgeStyle=orthogonalEdgeStyle;rounded=0;orthogonalLoop=1;jettySize=auto;html=1;exitX=1;exitY=0.5;exitDx=0;exitDy=0;entryX=0;entryY=0.5;entryDx=0;entryDy=0;" edge="1" parent="o_3QL244XvAk82PywuJS-3" source="mbrXpw7Z29_kNCdEApq_-5" target="kg6EBa7nbSLMzdfXosk1-14">
          <mxGeometry relative="1" as="geometry" />
        </mxCell>
        <mxCell id="mbrXpw7Z29_kNCdEApq_-5" value="Ask Question" style="rounded=1;whiteSpace=wrap;html=1;fontSize=12;glass=0;strokeWidth=1;shadow=0;" parent="o_3QL244XvAk82PywuJS-3" vertex="1">
          <mxGeometry x="310" y="290" width="120" height="40" as="geometry" />
        </mxCell>
        <mxCell id="o_3QL244XvAk82PywuJS-26" style="edgeStyle=orthogonalEdgeStyle;rounded=0;orthogonalLoop=1;jettySize=auto;html=1;exitX=0.5;exitY=1;exitDx=0;exitDy=0;entryX=0.5;entryY=0;entryDx=0;entryDy=0;" edge="1" parent="o_3QL244XvAk82PywuJS-3" source="kg6EBa7nbSLMzdfXosk1-14" target="mbrXpw7Z29_kNCdEApq_-8">
          <mxGeometry relative="1" as="geometry" />
        </mxCell>
        <mxCell id="kg6EBa7nbSLMzdfXosk1-14" value="Answer" style="rounded=1;whiteSpace=wrap;html=1;fontSize=12;glass=0;strokeWidth=1;shadow=0;" parent="o_3QL244XvAk82PywuJS-3" vertex="1">
          <mxGeometry x="580" y="290" width="120" height="40" as="geometry" />
        </mxCell>
        <mxCell id="o_3QL244XvAk82PywuJS-20" style="edgeStyle=orthogonalEdgeStyle;rounded=0;orthogonalLoop=1;jettySize=auto;html=1;exitX=0;exitY=0.5;exitDx=0;exitDy=0;entryX=0;entryY=0.5;entryDx=0;entryDy=0;" edge="1" parent="o_3QL244XvAk82PywuJS-3" source="mbrXpw7Z29_kNCdEApq_-8" target="mbrXpw7Z29_kNCdEApq_-0">
          <mxGeometry relative="1" as="geometry">
            <Array as="points">
              <mxPoint x="280" y="415" />
              <mxPoint x="280" y="205" />
            </Array>
          </mxGeometry>
        </mxCell>
        <mxCell id="o_3QL244XvAk82PywuJS-22" style="edgeStyle=orthogonalEdgeStyle;rounded=0;orthogonalLoop=1;jettySize=auto;html=1;exitX=1;exitY=0.5;exitDx=0;exitDy=0;entryX=1;entryY=0.5;entryDx=0;entryDy=0;" edge="1" parent="o_3QL244XvAk82PywuJS-3" source="mbrXpw7Z29_kNCdEApq_-8" target="WIyWlLk6GJQsqaUBKTNV-12">
          <mxGeometry relative="1" as="geometry">
            <Array as="points">
              <mxPoint x="720" y="415" />
              <mxPoint x="720" y="520" />
            </Array>
          </mxGeometry>
        </mxCell>
        <mxCell id="mbrXpw7Z29_kNCdEApq_-8" value="" style="rhombus;whiteSpace=wrap;html=1;shadow=0;fontFamily=Helvetica;fontSize=12;align=center;strokeWidth=1;spacing=6;spacingTop=-4;" parent="o_3QL244XvAk82PywuJS-3" vertex="1">
          <mxGeometry x="625" y="400" width="30" height="30" as="geometry" />
        </mxCell>
        <mxCell id="mbrXpw7Z29_kNCdEApq_-15" value="Yes" style="text;html=1;align=center;verticalAlign=middle;resizable=0;points=[];autosize=1;strokeColor=none;fillColor=none;" parent="o_3QL244XvAk82PywuJS-3" vertex="1">
          <mxGeometry x="665" y="390" width="40" height="30" as="geometry" />
        </mxCell>
        <mxCell id="kg6EBa7nbSLMzdfXosk1-23" value="No" style="text;html=1;align=center;verticalAlign=middle;resizable=0;points=[];autosize=1;strokeColor=none;fillColor=none;" parent="o_3QL244XvAk82PywuJS-3" vertex="1">
          <mxGeometry x="580" y="390" width="40" height="30" as="geometry" />
        </mxCell>
        <mxCell id="o_3QL244XvAk82PywuJS-21" value="&lt;span style=&quot;font-size: 10px;&quot;&gt;Was it&lt;br&gt;last?&lt;br&gt;&lt;/span&gt;" style="text;html=1;align=center;verticalAlign=middle;resizable=0;points=[];autosize=1;strokeColor=none;fillColor=none;" vertex="1" parent="o_3QL244XvAk82PywuJS-3">
          <mxGeometry x="615" y="420" width="50" height="40" as="geometry" />
        </mxCell>
        <mxCell id="o_3QL244XvAk82PywuJS-23" style="edgeStyle=orthogonalEdgeStyle;rounded=0;orthogonalLoop=1;jettySize=auto;html=1;exitX=0;exitY=0.5;exitDx=0;exitDy=0;entryX=1;entryY=0.5;entryDx=0;entryDy=0;" edge="1" parent="o_3QL244XvAk82PywuJS-3" source="WIyWlLk6GJQsqaUBKTNV-12" target="WIyWlLk6GJQsqaUBKTNV-7">
          <mxGeometry relative="1" as="geometry" />
        </mxCell>
        <mxCell id="WIyWlLk6GJQsqaUBKTNV-12" value="Assume Results" style="rounded=1;whiteSpace=wrap;html=1;fontSize=12;glass=0;strokeWidth=1;shadow=0;" parent="o_3QL244XvAk82PywuJS-3" vertex="1">
          <mxGeometry x="315" y="500" width="120" height="40" as="geometry" />
        </mxCell>
        <mxCell id="o_3QL244XvAk82PywuJS-24" style="edgeStyle=orthogonalEdgeStyle;rounded=0;orthogonalLoop=1;jettySize=auto;html=1;exitX=0.5;exitY=1;exitDx=0;exitDy=0;entryX=0;entryY=0.5;entryDx=0;entryDy=0;" edge="1" parent="o_3QL244XvAk82PywuJS-3" source="WIyWlLk6GJQsqaUBKTNV-7" target="mbrXpw7Z29_kNCdEApq_-39">
          <mxGeometry relative="1" as="geometry" />
        </mxCell>
        <mxCell id="WIyWlLk6GJQsqaUBKTNV-7" value="Approve Results" style="rounded=1;whiteSpace=wrap;html=1;fontSize=12;glass=0;strokeWidth=1;shadow=0;" parent="o_3QL244XvAk82PywuJS-3" vertex="1">
          <mxGeometry x="70" y="500" width="120" height="40" as="geometry" />
        </mxCell>
        <mxCell id="mbrXpw7Z29_kNCdEApq_-39" value="" style="ellipse;html=1;shape=endState;fillColor=strokeColor;" parent="o_3QL244XvAk82PywuJS-3" vertex="1">
          <mxGeometry x="359" y="610" width="30" height="30" as="geometry" />
        </mxCell>
        <mxCell id="o_3QL244XvAk82PywuJS-25" value="&lt;span style=&quot;font-size: 10px;&quot;&gt;Stores Result&lt;br&gt;&lt;/span&gt;" style="text;html=1;align=center;verticalAlign=middle;resizable=0;points=[];autosize=1;strokeColor=none;fillColor=none;" vertex="1" parent="o_3QL244XvAk82PywuJS-3">
          <mxGeometry x="335" y="640" width="80" height="30" as="geometry" />
        </mxCell>
        <mxCell id="o_3QL244XvAk82PywuJS-5" value="" style="endArrow=none;html=1;rounded=0;entryX=0.319;entryY=0.002;entryDx=0;entryDy=0;entryPerimeter=0;" edge="1" parent="WIyWlLk6GJQsqaUBKTNV-1" target="o_3QL244XvAk82PywuJS-3">
          <mxGeometry width="50" height="50" relative="1" as="geometry">
            <mxPoint x="279" y="790" as="sourcePoint" />
            <mxPoint x="310" y="220" as="targetPoint" />
          </mxGeometry>
        </mxCell>
        <mxCell id="o_3QL244XvAk82PywuJS-8" value="" style="endArrow=none;html=1;rounded=0;entryX=0.681;entryY=-0.003;entryDx=0;entryDy=0;entryPerimeter=0;" edge="1" parent="WIyWlLk6GJQsqaUBKTNV-1" target="o_3QL244XvAk82PywuJS-3">
          <mxGeometry width="50" height="50" relative="1" as="geometry">
            <mxPoint x="551" y="790" as="sourcePoint" />
            <mxPoint x="603" y="30" as="targetPoint" />
          </mxGeometry>
        </mxCell>
      </root>
    </mxGraphModel>
  </diagram>
</mxfile>
